[Header]
FileType HTR
DataType HTRS
FileVersion 1
NumSegments 64
NumFrames 3
DataFrameRate 30
EulerRotationOrder ZYX
CalibrationUnits mm
RotationUnits Degrees
GlobalAxisofGravity Y
BoneLengthAxis Y
ScaleFactor 1.0
[SegmentNames&Hierarchy]
Hips	GLOBAL
Spine	Hips
Spine1	Spine
Spine2	Spine1
Neck	Spine2
Head	Neck
LeftEye	Head
RightEye	Head
LeftShoulder	Spine2
LeftArm	LeftShoulder
LeftForeArm	LeftArm
LeftHand	LeftForeArm
LeftHandThumb1	LeftHand
LeftHandThumb2	LeftHandThumb1
LeftHandThumb3	LeftHandThumb2
LeftHandThumb4	LeftHandThumb3
LeftHandIndex1	LeftHand
LeftHandIndex2	LeftHandIndex1
LeftHandIndex3	LeftHandIndex2
LeftHandIndex4	LeftHandIndex3
LeftHandMiddle1	LeftHand
LeftHandMiddle2	LeftHandMiddle1
LeftHandMiddle3	LeftHandMiddle2
LeftHandMiddle4	LeftHandMiddle3
LeftHandRing1	LeftHand
LeftHandRing2	LeftHandRing1
LeftHandRing3	LeftHandRing2
LeftHandRing4	LeftHandRing3
LeftHandPinky1	LeftHand
LeftHandPinky2	LeftHandPinky1
LeftHandPinky3	LeftHandPinky2
LeftHandPinky4	LeftHandPinky3
RightShoulder	Spine2
RightArm	RightShoulder
RightForeArm	RightArm
RightHand	RightForeArm
RightHandPinky1	RightHand
RightHandPinky2	RightHandPinky1
RightHandPinky3	RightHandPinky2
RightHandPinky4	RightHandPinky3
RightHandRing1	RightHand
RightHandRing2	RightHandRing1
RightHandRing3	RightHandRing2
RightHandRing4	RightHandRing3
RightHandMiddle1	RightHand
RightHandMiddle2	RightHandMiddle1
RightHandMiddle3	RightHandMiddle2
RightHandMiddle4	RightHandMiddle3
RightHandIndex1	RightHand
RightHandIndex2	RightHandIndex1
RightHandIndex3	RightHandIndex2
RightHandIndex4	RightHandIndex3
RightHandThumb1	RightHand
RightHandThumb2	RightHandThumb1
RightHandThumb3	RightHandThumb2
RightHandThumb4	RightHandThumb3
LeftUpLeg	Hips
LeftLeg	LeftUpLeg
LeftFoot	LeftLeg
LeftToeBase	LeftFoot
RightUpLeg	Hips
RightLeg	RightUpLeg
RightFoot	RightLeg
RightToeBase	RightFoot
[BasePosition]
Hips	0	0	0	0	0	0	1
Spine	0	0	0	0	0	0	1
Spine1	0	0	0	0	0	0	1
Spine2	0	0	0	0	0	0	1
Neck	0	0	0	0	0	0	1
Head	0	0	0	0	0	0	1
LeftEye	0	0	0	0	0	0	1
RightEye	0	0	0	0	0	0	1
LeftShoulder	0	0	0	0	0	0	1
LeftArm	0	0	0	0	0	0	1
LeftForeArm	0	0	0	0	0	0	1
LeftHand	0	0	0	0	0	0	1
LeftHandThumb1	0	0	0	0	0	0	1
LeftHandThumb2	0	0	0	0	0	0	1
LeftHandThumb3	0	0	0	0	0	0	1
LeftHandThumb4	0	0	0	0	0	0	1
LeftHandIndex1	0	0	0	0	0	0	1
LeftHandIndex2	0	0	0	0	0	0	1
LeftHandIndex3	0	0	0	0	0	0	1
LeftHandIndex4	0	0	0	0	0	0	1
LeftHandMiddle1	0	0	0	0	0	0	1
LeftHandMiddle2	0	0	0	0	0	0	1
LeftHandMiddle3	0	0	0	0	0	0	1
LeftHandMiddle4	0	0	0	0	0	0	1
LeftHandRing1	0	0	0	0	0	0	1
LeftHandRing2	0	0	0	0	0	0	1
LeftHandRing3	0	0	0	0	0	0	1
LeftHandRing4	0	0	0	0	0	0	1
LeftHandPinky1	0	0	0	0	0	0	1
LeftHandPinky2	0	0	0	0	0	0	1
LeftHandPinky3	0	0	0	0	0	0	1
LeftHandPinky4	0	0	0	0	0	0	1
RightShoulder	0	0	0	0	0	0	1
RightArm	0	0	0	0	0	0	1
RightForeArm	0	0	0	0	0	0	1
RightHand	0	0	0	0	0	0	1
RightHandPinky1	0	0	0	0	0	0	1
RightHandPinky2	0	0	0	0	0	0	1
RightHandPinky3	0	0	0	0	0	0	1
RightHandPinky4	0	0	0	0	0	0	1
RightHandRing1	0	0	0	0	0	0	1
RightHandRing2	0	0	0	0	0	0	1
RightHandRing3	0	0	0	0	0	0	1
RightHandRing4	0	0	0	0	0	0	1
RightHandMiddle1	0	0	0	0	0	0	1
RightHandMiddle2	0	0	0	0	0	0	1
RightHandMiddle3	0	0	0	0	0	0	1
RightHandMiddle4	0	0	0	0	0	0	1
RightHandIndex1	0	0	0	0	0	0	1
RightHandIndex2	0	0	0	0	0	0	1
RightHandIndex3	0	0	0	0	0	0	1
RightHandIndex4	0	0	0	0	0	0	1
RightHandThumb1	0	0	0	0	0	0	1
RightHandThumb2	0	0	0	0	0	0	1
RightHandThumb3	0	0	0	0	0	0	1
RightHandThumb4	0	0	0	0	0	0	1
LeftUpLeg	0	0	0	0	0	0	1
LeftLeg	0	0	0	0	0	0	1
LeftFoot	0	0	0	0	0	0	1
LeftToeBase	0	0	0	0	0	0	1
RightUpLeg	0	0	0	0	0	0	1
RightLeg	0	0	0	0	0	0	1
RightFoot	0	0	0	0	0	0	1
RightToeBase	0	0	0	0	0	0	1
[Hips]
9	-495.775177	919.5462036	14.57810402	7.906358719	-81.89112854	-1.532065392	1.0
10	-559.425415	919.4216309	13.64211941	-2.118496895	-78.92140961	8.754167557	1.0
11	-615.7335205	930.59729	12.94204235	-8.044454575	-75.22408295	14.99135494	1.0
[Spine]
9	0	101.8159943	1.315000057	4.241446495	20.53063393	-3.085602522	1.0
10	0	101.8159943	1.315000057	4.1011796	19.31149483	-4.678539753	1.0
11	0	101.8159943	1.315000057	4.519177914	16.98714828	-6.092781544	1.0
[Spine1]
9	0	100.8349991	-10.00800037	3.209906578	7.103135586	-1.586843371	1.0
10	0	100.8349991	-10.00800037	3.259715319	6.842591286	-2.182658195	1.0
11	0	100.8349991	-10.00800037	3.615742445	6.909989357	-2.517525911	1.0
[Spine2]
9	0	91	-13.73399925	3.11924243	7.137280941	-1.596267104	1.0
10	0	91	-13.73399925	3.175783396	6.876451492	-2.177214384	1.0
11	0	91	-13.73399925	3.539883137	6.946108818	-2.495212317	1.0
[Neck]
9	0	166.7169952	-25.16200066	3.925763369	5.680203915	1.752468467	1.0
10	0	166.7169952	-25.16200066	4.00493288	5.538521767	1.779266119	1.0
11	0	166.7169952	-25.16200066	4.223536491	5.483039379	1.533156395	1.0
[Head]
9	0	96.17900085	16.84999847	-14.50626373	34.05307388	-12.82198811	1.0
10	0	96.17900085	16.84999847	-14.03558445	33.13391876	-11.45647144	1.0
11	0	96.17900085	16.84999847	-14.10380173	32.49282837	-11.06373882	1.0
[LeftEye]
9	30.6760006	64.09500122	92.83599854	0	0	0	1.0
10	30.6760006	64.09500122	92.83599854	0	0	0	1.0
11	30.6760006	64.09500122	92.83599854	0	0	0	1.0
[RightEye]
9	-30.6760006	64.09500122	92.83499908	0	0	0	1.0
10	-30.6760006	64.09500122	92.83499908	0	0	0	1.0
11	-30.6760006	64.09500122	92.83499908	0	0	0	1.0
[LeftShoulder]
9	45.70400238	109.4599991	-26.28000069	1.144728065	6.356882572	-8.322665215	1.0
10	45.70400238	109.4599991	-26.28000069	1.074545503	5.418276787	-8.520288467	1.0
11	45.70400238	109.4599991	-26.28000069	0.9672940373	4.570940018	-8.819471359	1.0
[LeftArm]
9	105.923996	-5.24600029	-22.32099915	14.89655876	1.977769136	-63.05587006	1.0
10	105.923996	-5.24600029	-22.32099915	15.39898872	0.9097878933	-61.81834412	1.0
11	105.923996	-5.24600029	-22.32099915	15.6394701	-0.7641560435	-61.34647751	1.0
[LeftForeArm]
9	278.414978	-0.0009999999311	0	1.480559717e-06	-6.832433224	-0.0002010147728	1.0
10	278.414978	-0.0009999999311	0	7.363789337e-06	-5.925488949	-0.0002054538054	1.0
11	278.414978	-0.0009999999311	0	9.26440498e-06	-5.672277927	-0.0002133302769	1.0
[LeftHand]
9	283.2879944	0	0	5.606903553	2.694651842	5.233770847	1.0
10	283.2879944	0	0	6.048048496	3.141117334	6.385402203	1.0
11	283.2879944	0	0	5.992249966	2.212779284	6.559164524	1.0
[LeftHandThumb1]
9	24.6609993	-15.75	26.8239994	30.58115005	-20.32058144	11.29641056	1.0
10	24.6609993	-15.75	26.8239994	30.58115005	-20.32058144	11.29641056	1.0
11	24.6609993	-15.75	26.8239994	30.58115005	-20.32058144	11.29641056	1.0
[LeftHandThumb2]
9	32.29800034	-18.64699936	18.64699936	13.19743538	20.70699883	-2.720737696	1.0
10	32.29800034	-18.64699936	18.64699936	13.43761063	18.48990822	-2.846284866	1.0
11	32.29800034	-18.64699936	18.64699936	13.57783985	16.34279251	-2.999496937	1.0
[LeftHandThumb3]
9	26.52600098	-15.31499958	15.31499958	-15.16602993	7.977344513	10.05033493	1.0
10	26.52600098	-15.31499958	15.31499958	-15.18663216	7.928927898	10.06497192	1.0
11	26.52600098	-15.31499958	15.31499958	-15.20506573	7.885598183	10.0780592	1.0
[LeftHandThumb4]
9	19.54599953	-11.28499985	11.28499985	0	0	0	1.0
10	19.54599953	-11.28499985	11.28499985	0	0	0	1.0
11	19.54599953	-11.28499985	11.28499985	0	0	0	1.0
[LeftHandIndex1]
9	91.09299469	-5.170999527	22.60099792	-1.296891093	-5.651647091	-24.40105629	1.0
10	91.09299469	-5.170999527	22.60099792	-1.442513585	-5.7906394	-25.8671627	1.0
11	91.09299469	-5.170999527	22.60099792	-1.604282022	-5.996598244	-27.46024895	1.0
[LeftHandIndex2]
9	36.76399994	0	0	-0.7069402337	2.785170317	-28.4797802	1.0
10	36.76399994	0	0	-0.702910006	2.77772069	-28.39657021	1.0
11	36.76399994	0	0	-0.7018835545	2.775822163	-28.37538338	1.0
[LeftHandIndex3]
9	28.83100128	0	0	-0.2886319757	1.813718081	-18.08260536	1.0
10	28.83100128	0	0	-0.2859776616	1.805584669	-17.99862671	1.0
11	28.83100128	0	0	-0.2853031456	1.803509712	-17.97729874	1.0
[LeftHandIndex4]
9	23.92700005	0	0	0	0	0	1.0
10	23.92700005	0	0	0	0	0	1.0
11	23.92700005	0	0	0	0	0	1.0
[LeftHandMiddle1]
9	95.33399963	0	0	-2.382384777	2.675136566	-35.34584045	1.0
10	95.33399963	0	0	-2.494467735	2.463128567	-36.54886627	1.0
11	95.33399963	0	0	-2.629089355	2.213619947	-37.97893524	1.0
[LeftHandMiddle2]
9	36.98199844	0	0	-0.5571439862	2.489600897	-25.22532463	1.0
10	36.98199844	0	0	-0.5538499355	2.48260498	-25.14941597	1.0
11	36.98199844	0	0	-0.5511903167	2.476924658	-25.08762169	1.0
[LeftHandMiddle3]
9	29.50900078	0	0	-0.3892246783	2.096748352	-21.03014946	1.0
10	29.50900078	0	0	-0.3864198029	2.089434147	-20.95333862	1.0
11	29.50900078	0	0	-0.3841308355	2.083467007	-20.89089394	1.0
[LeftHandMiddle4]
9	28.3390007	0	0	0	0	0	1.0
10	28.3390007	0	0	0	0	0	1.0
11	28.3390007	0	0	0	0	0	1.0
[LeftHandRing1]
9	91.04499817	-0.4390000105	-18.65100098	-2.111163378	3.482779503	-32.35345459	1.0
10	91.04499817	-0.4390000105	-18.65100098	-2.198156118	3.195247173	-33.32340622	1.0
11	91.04499817	-0.4390000105	-18.65100098	-2.290616989	2.905045509	-34.34619522	1.0
[LeftHandRing2]
9	31.54000092	0	0	-0.8473173976	3.029319286	-31.24673653	1.0
10	31.54000092	0	0	-0.8495800495	3.033033371	-31.28961372	1.0
11	31.54000092	0	0	-0.8549849391	3.041912317	-31.39181519	1.0
[LeftHandRing3]
9	29.37700081	0	0	-0.9431498647	3.18168354	-33.01561356	1.0
10	29.37700081	0	0	-0.9455638528	3.185385466	-33.05887604	1.0
11	29.37700081	0	0	-0.9513049126	3.194176435	-33.16226959	1.0
[LeftHandRing4]
9	26.47500038	0	0	0	0	0	1.0
10	26.47500038	0	0	0	0	0	1.0
11	26.47500038	0	0	0	0	0	1.0
[LeftHandPinky1]
9	80.77799988	-4.887000084	-38.06099701	-1.801329732	2.86739707	-28.64671898	1.0
10	80.77799988	-4.887000084	-38.06099701	-1.90623486	2.265478373	-29.88386917	1.0
11	80.77799988	-4.887000084	-38.06099701	-2.005089998	1.692764521	-31.04355812	1.0
[LeftHandPinky2]
9	36	0	0	-0.481626302	2.322697401	-23.42672157	1.0
10	36	0	0	-0.4775870144	2.313348293	-23.32674408	1.0
11	36	0	0	-0.4758649766	2.309351444	-23.28395844	1.0
[LeftHandPinky3]
9	21.14200211	0	0	-0.5455166101	2.464780569	-24.95603943	1.0
10	21.14200211	0	0	-0.5457464457	2.465264797	-24.96121979	1.0
11	21.14200211	0	0	-0.547121346	2.468215227	-24.99329567	1.0
[LeftHandPinky4]
9	19.75699997	0	0	0	0	0	1.0
10	19.75699997	0	0	0	0	0	1.0
11	19.75699997	0	0	0	0	0	1.0
[RightShoulder]
9	-45.70000076	109.4620056	-26.28000069	-1.772798419	9.758225441	9.937289238	1.0
10	-45.70000076	109.4620056	-26.28000069	-1.257793784	9.37784481	10.06104088	1.0
11	-45.70000076	109.4620056	-26.28000069	-0.6653951406	9.172293663	10.04561043	1.0
[RightArm]
9	-105.9280014	-5.248000145	-22.32099915	38.61415482	30.5628624	61.44440842	1.0
10	-105.9280014	-5.248000145	-22.32099915	38.16865158	30.19702721	64.56520081	1.0
11	-105.9280014	-5.248000145	-22.32099915	37.61621857	29.64788628	65.94935608	1.0
[RightForeArm]
9	-278.414978	0	0	-2.360275175e-06	20.67272949	-2.181684067e-05	1.0
10	-278.414978	0	0	-2.759969902e-06	18.89575195	-1.622907439e-05	1.0
11	-278.414978	0	0	1.09544419e-06	17.01718712	2.21239543e-06	1.0
[RightHand]
9	-283.2879944	0	0.0009999999311	-5.002547264	8.083889008	-18.52662277	1.0
10	-283.2879944	0	0.0009999999311	-6.132881165	7.782204628	-15.67598248	1.0
11	-283.2879944	0	0.0009999999311	-6.841365814	5.523591995	-12.69474411	1.0
[RightHandPinky1]
9	-80.76699829	-4.885000229	-38.06000137	-2.293331146	-2.783722878	37.35194778	1.0
10	-80.76699829	-4.885000229	-38.06000137	-2.346540689	-2.748486519	38.00732803	1.0
11	-80.76699829	-4.885000229	-38.06000137	-2.336514711	-3.014471769	37.87940216	1.0
[RightHandPinky2]
9	-36	0	0.0009999999311	-0.3801372945	-1.839070082	23.37503624	1.0
10	-36	0	0.0009999999311	-0.381683141	-1.842648745	23.42326546	1.0
11	-36	0	0.0009999999311	-0.3851304054	-1.850566387	23.529953	1.0
[RightHandPinky3]
9	-21.14200211	0	0	-0.162307322	-1.21649158	15.19937134	1.0
10	-21.14200211	0	0	-0.1633860916	-1.220434785	15.24978542	1.0
11	-21.14200211	0	0	-0.1657461524	-1.229055285	15.36023712	1.0
[RightHandPinky4]
9	-19.75699997	0	0	0	0	0	1.0
10	-19.75699997	0	0	0	0	0	1.0
11	-19.75699997	0	0	0	0	0	1.0
[RightHandRing1]
9	-91.03599548	-0.4390000105	-18.65100098	-1.936379313	-6.904960155	32.87659836	1.0
10	-91.03599548	-0.4390000105	-18.65100098	-1.973842502	-7.119161129	33.36024475	1.0
11	-91.03599548	-0.4390000105	-18.65100098	-1.956785321	-6.948659897	33.13772583	1.0
[RightHandRing2]
9	-31.54000092	0	0	-0.3688493967	-1.812720537	23.00115395	1.0
10	-31.54000092	0	0	-0.3699232042	-1.815242887	23.0350647	1.0
11	-31.54000092	0	0	-0.3697667122	-1.814870834	23.03008461	1.0
[RightHandRing3]
9	-29.37700081	0	0	-0.2644253671	-1.543877125	19.43686104	1.0
10	-29.37700081	0	0	-0.2653052509	-1.546392798	19.46975517	1.0
11	-29.37700081	0	0	-0.2652055323	-1.546090961	19.46587944	1.0
[RightHandRing4]
9	-26.47500038	0	0	0	0	0	1.0
10	-26.47500038	0	0	0	0	0	1.0
11	-26.47500038	0	0	0	0	0	1.0
[RightHandMiddle1]
9	-95.32500458	0	0	-1.939785719	-3.586897373	32.89493561	1.0
10	-95.32500458	0	0	-1.969789386	-3.744134903	33.27431488	1.0
11	-95.32500458	0	0	-1.892783165	-3.657733202	32.28321075	1.0
[RightHandMiddle2]
9	-36.98199844	0	0	-0.2418181747	-1.478286862	18.57971382	1.0
10	-36.98199844	0	0	-0.2413056791	-1.476763129	18.55985069	1.0
11	-36.98199844	0	0	-0.2408701777	-1.475439906	18.54266357	1.0
[RightHandMiddle3]
9	-29.50900078	0	0	-0.08720223606	-0.8973616958	11.1251173	1.0
10	-29.50900078	0	0	-0.08688994497	-0.8957850933	11.10518265	1.0
11	-29.50900078	0	0	-0.0866144374	-0.8944200873	11.08795452	1.0
[RightHandMiddle4]
9	-28.3390007	0	0.0009999999311	0	0	0	1.0
10	-28.3390007	0	0.0009999999311	0	0	0	1.0
11	-28.3390007	0	0.0009999999311	0	0	0	1.0
[RightHandIndex1]
9	-91.08300018	-5.167999744	22.60099792	-1.119843125	-0.9228101969	27.03316498	1.0
10	-91.08300018	-5.167999744	22.60099792	-1.078003407	-1.299329996	27.41498375	1.0
11	-91.08300018	-5.167999744	22.60099792	-1.051642299	-0.8390881419	26.36813354	1.0
[RightHandIndex2]
9	-36.76399994	0	0	-0.1027786806	-0.9712620974	12.08219147	1.0
10	-36.76399994	0	0	-0.1027927175	-0.9712824225	12.08247185	1.0
11	-36.76399994	0	0	-0.1022313088	-0.9686301947	12.04898548	1.0
[RightHandIndex3]
9	-28.83100128	0	0	-0.1069427803	-0.9904378057	12.32452869	1.0
10	-28.83100128	0	0	-0.106940046	-0.9904584289	12.32479572	1.0
11	-28.83100128	0	0	-0.1063620374	-0.9878054261	12.29122734	1.0
[RightHandIndex4]
9	-23.92700005	0	0	0	0	0	1.0
10	-23.92700005	0	0	0	0	0	1.0
11	-23.92700005	0	0	0	0	0	1.0
[RightHandThumb1]
9	-24.64799881	-15.72700024	26.82600021	-0.1902875453	0.8218618631	0.3671384752	1.0
10	-24.64799881	-15.72700024	26.82600021	-0.1902875453	0.8218618631	0.3671384752	1.0
11	-24.64799881	-15.72700024	26.82600021	-0.1902875453	0.8218618631	0.3671384752	1.0
[RightHandThumb2]
9	-32.29800034	-18.64699936	18.64699936	18.37409973	-8.107557297	-19.48195267	1.0
10	-32.29800034	-18.64699936	18.64699936	18.91444397	-10.82222557	-20.51241112	1.0
11	-32.29800034	-18.64699936	18.64699936	18.22955322	-10.1577692	-20.31886864	1.0
[RightHandThumb3]
9	-26.52600098	-15.31399918	15.31399918	-1.680668235	11.18453217	-26.16386414	1.0
10	-26.52600098	-15.31399918	15.31399918	-2.180511951	12.19397831	-27.15215874	1.0
11	-26.52600098	-15.31399918	15.31399918	-1.649239421	11.00566578	-26.54223442	1.0
[RightHandThumb4]
9	-19.54599953	-11.28499985	11.28499985	0	0	0	1.0
10	-19.54599953	-11.28499985	11.28499985	0	0	0	1.0
11	-19.54599953	-11.28499985	11.28499985	0	0	0	1.0
[LeftUpLeg]
9	82.07800293	-67.51699829	-15.99599934	-47.7971611	-1.947097063	-2.375553846	1.0
10	82.07800293	-67.51699829	-15.99599934	-48.93443298	-3.473820925	-4.079889774	1.0
11	82.07800293	-67.51699829	-15.99599934	-45.81635666	-3.852431059	-6.658201218	1.0
[LeftLeg]
9	0	-443.7049866	2.845999956	28.02004242	8.578623772	5.291818142	1.0
10	0	-443.7049866	2.845999956	38.13747787	6.832551479	6.258355618	1.0
11	0	-443.7049866	2.845999956	39.37812042	4.506770611	4.552185059	1.0
[LeftFoot]
9	0	-444.2789917	-29.8219986	14.56400108	1.155552983	4.091602802	1.0
10	0	-444.2789917	-29.8219986	4.462351322	1.232914209	2.985124111	1.0
11	0	-444.2789917	-29.8219986	0.02805473655	1.037351012	2.612446547	1.0
[LeftToeBase]
9	0	-87.28699493	107.1060028	-9.803328514	-2.55340201e-05	-2.266537422e-06	1.0
10	0	-87.28699493	107.1060028	-4.930062294	-1.437122137e-05	2.098299319e-06	1.0
11	0	-87.28699493	107.1060028	-5.375382423	-4.425238149e-05	4.726443876e-06	1.0
[RightUpLeg]
9	-82.07800293	-67.51699829	-15.99599934	16.75930786	-14.32487869	-0.8146317005	1.0
10	-82.07800293	-67.51699829	-15.99599934	13.39988804	-16.27688217	-3.062360764	1.0
11	-82.07800293	-67.51699829	-15.99599934	3.945419312	-16.56215286	-3.78859973	1.0
[RightLeg]
9	0	-443.7049866	2.861999989	18.24328995	9.06456089	4.173098087	1.0
10	0	-443.7049866	2.861999989	28.67121506	8.473466873	5.731498718	1.0
11	0	-443.7049866	2.861999989	47.11804199	6.197972775	7.983602047	1.0
[RightFoot]
9	0	-444.2770081	-29.83799934	-13.6542511	18.70944786	-16.51391792	1.0
10	0	-444.2770081	-29.83799934	2.965653419	20.79945946	-5.141917706	1.0
11	0	-444.2770081	-29.83799934	16.43148232	17.44137573	9.02033329	1.0
[RightToeBase]
9	0	-87.28699493	107.1060028	-28.48419571	-2.281514168	-4.068068981	1.0
10	0	-87.28699493	107.1060028	-33.52801514	-5.049454212	-9.253503799	1.0
11	0	-87.28699493	107.1060028	-17.27581406	-0.5237676501	-1.855540395	1.0
[EndOfFile]
